<svg width="40" height="40" viewBox="0 0 40 40" fill="none" xmlns="http://www.w3.org/2000/svg">
<rect width="40" height="40" rx="8" fill="#EAF0FF"/>
<path d="M20.8333 21.4582C21.1785 21.4582 21.4583 21.1783 21.4583 20.8332C21.4583 20.488 21.1785 20.2082 20.8333 20.2082V21.4582ZM20.8333 28.1248C21.1785 28.1248 21.4583 27.845 21.4583 27.4998C21.4583 27.1547 21.1785 26.8748 20.8333 26.8748V28.1248ZM28.799 21.2501C29.0292 20.9929 29.0074 20.5978 28.7502 20.3675C28.4931 20.1373 28.0979 20.1591 27.8677 20.4163L28.799 21.2501ZM25.5257 23.9692L25.06 23.5523L25.5257 23.9692ZM20.7243 23.9692L21.19 23.5523L20.7243 23.9692ZM20.4656 22.7432C20.2354 22.4861 19.8403 22.4642 19.5831 22.6945C19.3259 22.9247 19.3041 23.3199 19.5344 23.577L20.4656 22.7432ZM21.0417 14.9998C21.0417 16.4956 19.8291 17.7082 18.3333 17.7082V18.9582C20.5195 18.9582 22.2917 17.186 22.2917 14.9998H21.0417ZM18.3333 17.7082C16.8376 17.7082 15.625 16.4956 15.625 14.9998H14.375C14.375 17.186 16.1472 18.9582 18.3333 18.9582V17.7082ZM15.625 14.9998C15.625 13.5041 16.8376 12.2915 18.3333 12.2915V11.0415C16.1472 11.0415 14.375 12.8137 14.375 14.9998H15.625ZM18.3333 12.2915C19.8291 12.2915 21.0417 13.5041 21.0417 14.9998H22.2917C22.2917 12.8137 20.5195 11.0415 18.3333 11.0415V12.2915ZM15.8333 21.4582H20.8333V20.2082H15.8333V21.4582ZM20.8333 26.8748H15.8333V28.1248H20.8333V26.8748ZM15.8333 26.8748C14.3376 26.8748 13.125 25.6623 13.125 24.1665H11.875C11.875 26.3526 13.6472 28.1248 15.8333 28.1248V26.8748ZM15.8333 20.2082C13.6472 20.2082 11.875 21.9804 11.875 24.1665H13.125C13.125 22.6707 14.3376 21.4582 15.8333 21.4582V20.2082ZM27.8677 20.4163L25.06 23.5523L25.9913 24.386L28.799 21.2501L27.8677 20.4163ZM21.19 23.5523L20.4656 22.7432L19.5344 23.577L20.2587 24.386L21.19 23.5523ZM25.06 23.5523C24.4911 24.1877 24.108 24.6134 23.7804 24.8887C23.4684 25.151 23.2851 25.2082 23.125 25.2082V26.4582C23.6967 26.4582 24.1575 26.2047 24.5847 25.8456C24.9964 25.4996 25.4477 24.9933 25.9913 24.386L25.06 23.5523ZM20.2587 24.386C20.8023 24.9933 21.2536 25.4996 21.6653 25.8456C22.0925 26.2047 22.5533 26.4582 23.125 26.4582V25.2082C22.9649 25.2082 22.7816 25.151 22.4696 24.8887C22.142 24.6134 21.7589 24.1877 21.19 23.5523L20.2587 24.386Z" fill="#4A58EC"/>
</svg>
