<svg width="28" height="28" viewBox="0 0 28 28" fill="none" xmlns="http://www.w3.org/2000/svg">
<path d="M18.1051 24.3031C10.4966 21.7395 6.41883 17.0843 3.82186 10.5218C3.17264 9.20926 3.17261 5.92801 7.06806 3.82799C8.0419 3.303 9.01577 3.30299 10.3142 4.61551C11.6127 5.92802 10.3142 4.6155 11.6127 5.928C13.1061 7.4375 12.9472 8.75 12.6875 9.40625C12.4278 10.1938 11.2232 10.9155 11.6127 12.4905C12.0023 14.0655 13.95 16.1655 15.5082 16.428C17.0663 16.6905 17.9445 15.7063 18.5938 15.3125C19.243 14.9187 20.3166 14.7259 21.3513 15.7718C21.875 16.3011 22.0006 16.428 23.299 17.7406C24.5975 19.0531 24.7443 20.1183 24.208 21.0218C22.5313 24.4305 19.7103 24.8439 18.1051 24.3031Z" stroke="#9DB2CE" stroke-width="1.7" stroke-linecap="round" stroke-linejoin="round"/>
</svg>
