<svg width="28" height="28" viewBox="0 0 28 28" fill="none" xmlns="http://www.w3.org/2000/svg">
<path d="M15.1667 8.37239C15.1667 11.6665 14.5833 11.6665 9.33333 11.6665C4.08333 11.6665 3.5 11.6665 3.5 8.16651C3.5 4.6665 4.08333 4.6665 9.33333 4.6665C14.5833 4.6665 15.1667 4.6665 15.1667 8.37239Z" fill="#879FFF" stroke="#879FFF" stroke-width="1.7" stroke-linecap="round" stroke-linejoin="round"/>
<path d="M12.8333 19.6276C12.8333 16.3335 13.4167 16.3335 18.6667 16.3335C23.9167 16.3335 24.5 16.3335 24.5 19.8335C24.5 23.3335 23.9167 23.3335 18.6667 23.3335C13.4167 23.3335 12.8333 23.3335 12.8333 19.6276Z" fill="#879FFF" stroke="#879FFF" stroke-width="1.7" stroke-linecap="round" stroke-linejoin="round"/>
<path d="M24.4997 8.37239C24.4997 11.6665 24.033 11.6665 22.1663 11.6665C20.2997 11.6665 19.833 11.6665 19.833 8.1665C19.833 4.6665 20.2997 4.6665 22.1663 4.6665C24.208 4.6665 24.4997 4.6665 24.4997 8.37239Z" fill="#3A9BFE" stroke="#3A9BFE" stroke-width="1.7" stroke-linecap="round" stroke-linejoin="round"/>
<path d="M3.50033 19.6276C3.50033 16.3335 3.96699 16.3335 5.83366 16.3335C7.70032 16.3335 8.16699 16.3335 8.16699 19.8335C8.16699 23.3335 7.70033 23.3335 5.83366 23.3335C3.79199 23.3335 3.50033 23.3335 3.50033 19.6276Z" fill="#3A9BFE" stroke="#3A9BFE" stroke-width="1.7" stroke-linecap="round" stroke-linejoin="round"/>
</svg>
