<svg width="22" height="19" viewBox="0 0 22 19" fill="none" xmlns="http://www.w3.org/2000/svg">
<path d="M17.0002 15.7191C17.2477 15.7396 17.498 15.75 17.7508 15.75C18.7992 15.75 19.8056 15.5708 20.7413 15.2413C20.7476 15.1617 20.7508 15.0812 20.7508 15C20.7508 13.3431 19.4077 12 17.7508 12C17.1232 12 16.5406 12.1927 16.059 12.5222M17.0002 15.7191C17.0002 15.7294 17.0002 15.7397 17.0002 15.75C17.0002 15.975 16.9879 16.1971 16.9637 16.4156C15.207 17.4237 13.1709 18 11.0002 18C8.82957 18 6.79352 17.4237 5.03675 16.4156C5.01263 16.1971 5.00024 15.975 5.00024 15.75C5.00024 15.7397 5.00027 15.7295 5.00032 15.7192M17.0002 15.7191C16.9943 14.5426 16.6497 13.4461 16.059 12.5222M16.059 12.5222C14.9931 10.8552 13.1257 9.75 11.0002 9.75C8.87504 9.75 7.0079 10.8549 5.94193 12.5216M5.94193 12.5216C5.46047 12.1925 4.8782 12 4.25098 12C2.59412 12 1.25098 13.3431 1.25098 15C1.25098 15.0812 1.2542 15.1617 1.26054 15.2413C2.19617 15.5708 3.20264 15.75 4.25098 15.75C4.50332 15.75 4.75323 15.7396 5.00032 15.7192M5.94193 12.5216C5.35095 13.4457 5.00623 14.5424 5.00032 15.7192M14.0002 3.75C14.0002 5.40685 12.6571 6.75 11.0002 6.75C9.34339 6.75 8.00024 5.40685 8.00024 3.75C8.00024 2.09315 9.34339 0.75 11.0002 0.75C12.6571 0.75 14.0002 2.09315 14.0002 3.75ZM20.0002 6.75C20.0002 7.99264 18.9929 9 17.7502 9C16.5076 9 15.5002 7.99264 15.5002 6.75C15.5002 5.50736 16.5076 4.5 17.7502 4.5C18.9929 4.5 20.0002 5.50736 20.0002 6.75ZM6.50024 6.75C6.50024 7.99264 5.49288 9 4.25024 9C3.0076 9 2.00024 7.99264 2.00024 6.75C2.00024 5.50736 3.0076 4.5 4.25024 4.5C5.49288 4.5 6.50024 5.50736 6.50024 6.75Z" stroke="#9DB2CE" stroke-width="1.5" stroke-linecap="round" stroke-linejoin="round"/>
</svg>
