<svg width="40" height="40" viewBox="0 0 40 40" fill="none" xmlns="http://www.w3.org/2000/svg">
<rect width="40" height="40" rx="8" fill="#FFF4D5"/>
<path d="M21.875 16.458C21.875 17.4935 21.0355 18.333 20 18.333V19.583C21.7259 19.583 23.125 18.1839 23.125 16.458H21.875ZM20 18.333C18.9645 18.333 18.125 17.4935 18.125 16.458H16.875C16.875 18.1839 18.2741 19.583 20 19.583V18.333ZM18.125 16.458C18.125 15.4225 18.9645 14.583 20 14.583V13.333C18.2741 13.333 16.875 14.7321 16.875 16.458H18.125ZM20 14.583C21.0355 14.583 21.875 15.4225 21.875 16.458H23.125C23.125 14.7321 21.7259 13.333 20 13.333V14.583ZM17.5 22.083H22.5V20.833H17.5V22.083ZM22.5 25.833H17.5V27.083H22.5V25.833ZM17.5 25.833C16.4645 25.833 15.625 24.9935 15.625 23.958H14.375C14.375 25.6839 15.7741 27.083 17.5 27.083V25.833ZM24.375 23.958C24.375 24.9935 23.5355 25.833 22.5 25.833V27.083C24.2259 27.083 25.625 25.6839 25.625 23.958H24.375ZM22.5 22.083C23.5355 22.083 24.375 22.9225 24.375 23.958H25.625C25.625 22.2321 24.2259 20.833 22.5 20.833V22.083ZM17.5 20.833C15.7741 20.833 14.375 22.2321 14.375 23.958H15.625C15.625 22.9225 16.4645 22.083 17.5 22.083V20.833Z" fill="#F58A0B"/>
<path d="M16.4598 18.6569C16.3284 18.4457 16.0817 18.333 15.833 18.333C14.7975 18.333 13.958 17.4935 13.958 16.458C13.958 15.4225 14.7975 14.583 15.833 14.583C16.0817 14.583 16.3284 14.4703 16.4598 14.2591C16.4656 14.2498 16.4715 14.2405 16.4773 14.2312C16.6962 13.8858 16.5853 13.3967 16.1788 13.3519C16.0653 13.3394 15.9499 13.333 15.833 13.333C14.1071 13.333 12.708 14.7321 12.708 16.458C12.708 18.1839 14.1071 19.583 15.833 19.583C15.9499 19.583 16.0653 19.5766 16.1788 19.5641C16.5853 19.5193 16.6962 19.0303 16.4773 18.6848C16.4715 18.6755 16.4656 18.6662 16.4598 18.6569Z" fill="#F58A0B"/>
<path d="M13.9232 25.2637C13.8286 25.1059 13.6617 24.9997 13.4777 24.9997H13.333C12.2975 24.9997 11.458 24.1602 11.458 23.1247C11.458 22.0891 12.2975 21.2497 13.333 21.2497H13.4777C13.6617 21.2497 13.8286 21.1434 13.9232 20.9856C14.1542 20.6004 13.9036 19.9997 13.4544 19.9997H13.333C11.6071 19.9997 10.208 21.3988 10.208 23.1247C10.208 24.8506 11.6071 26.2497 13.333 26.2497H13.4544C13.9036 26.2497 14.1542 25.649 13.9232 25.2637Z" fill="#F58A0B"/>
<path d="M23.522 18.6848C23.3032 19.0303 23.4141 19.5193 23.8205 19.5641C23.9341 19.5766 24.0495 19.583 24.1663 19.583C25.8922 19.583 27.2913 18.1839 27.2913 16.458C27.2913 14.7321 25.8922 13.333 24.1663 13.333C24.0495 13.333 23.9341 13.3394 23.8205 13.3519C23.4141 13.3967 23.3032 13.8858 23.522 14.2312C23.5279 14.2405 23.5337 14.2498 23.5396 14.2591C23.671 14.4703 23.9176 14.583 24.1663 14.583C25.2019 14.583 26.0413 15.4225 26.0413 16.458C26.0413 17.4935 25.2019 18.333 24.1663 18.333C23.9176 18.333 23.671 18.4457 23.5396 18.6569C23.5337 18.6662 23.5279 18.6755 23.522 18.6848Z" fill="#F58A0B"/>
<path d="M26.0761 25.2637C25.8452 25.649 26.0958 26.2497 26.5449 26.2497H26.6663C28.3922 26.2497 29.7913 24.8506 29.7913 23.1247C29.7913 21.3988 28.3922 19.9997 26.6663 19.9997H26.5449C26.0958 19.9997 25.8452 20.6004 26.0761 20.9856C26.1707 21.1434 26.3377 21.2497 26.5217 21.2497H26.6663C27.7019 21.2497 28.5413 22.0891 28.5413 23.1247C28.5413 24.1602 27.7019 24.9997 26.6663 24.9997H26.5217C26.3377 24.9997 26.1707 25.1059 26.0761 25.2637Z" fill="#F58A0B"/>
</svg>
