<svg width="40" height="40" viewBox="0 0 40 40" fill="none" xmlns="http://www.w3.org/2000/svg">
<rect width="40" height="40" rx="8" fill="#F2ECFF"/>
<path d="M19.375 25.8333C19.375 26.1785 19.6548 26.4583 20 26.4583C20.3452 26.4583 20.625 26.1785 20.625 25.8333L19.375 25.8333ZM20.625 14.1667C20.625 13.8215 20.3452 13.5417 20 13.5417C19.6548 13.5417 19.375 13.8215 19.375 14.1667H20.625ZM22.0314 17.0431C22.204 17.3421 22.5862 17.4445 22.8852 17.2719C23.1841 17.0993 23.2865 16.7171 23.1139 16.4181L22.0314 17.0431ZM22.2597 16.1885L22.801 15.876L22.801 15.876L22.2597 16.1885ZM19.275 19.7333L19.4908 19.1467L19.4908 19.1467L19.275 19.7333ZM20.7251 20.2667L20.9408 19.6801L20.9408 19.6801L20.7251 20.2667ZM17.7404 23.8115L17.1991 24.124L17.1991 24.124L17.7404 23.8115ZM17.9687 22.9569C17.7961 22.6579 17.4139 22.5555 17.1149 22.7281C16.816 22.9007 16.7136 23.2829 16.8862 23.5819L17.9687 22.9569ZM21.1065 24.7134L20.794 24.1721L21.1065 24.7134ZM18.8936 15.2866L19.2061 15.8279L18.8936 15.2866ZM14.2176 26.7042L14.5849 26.1986L14.2176 26.7042ZM13.2958 25.7824L13.8014 25.4151L13.2958 25.7824ZM26.7042 25.7824L26.1986 25.4151L26.7042 25.7824ZM25.7824 26.7042L25.4151 26.1986L25.7824 26.7042ZM25.7824 13.2958L25.4151 13.8014L25.7824 13.2958ZM26.7042 14.2176L26.1986 14.5849L26.7042 14.2176ZM14.2176 13.2958L14.5849 13.8014L14.2176 13.2958ZM13.2958 14.2176L13.8014 14.5849L13.2958 14.2176ZM23.1139 16.4181L22.801 15.876L21.7184 16.501L22.0314 17.0431L23.1139 16.4181ZM18.2817 23.499L17.9687 22.9569L16.8862 23.5819L17.1991 24.124L18.2817 23.499ZM20.5093 20.8533C21.9728 21.3915 22.1444 23.3925 20.794 24.1721L21.419 25.2547C23.6872 23.9451 23.399 20.5842 20.9408 19.6801L20.5093 20.8533ZM18.5811 14.7453C16.3128 16.0549 16.6011 19.4158 19.0592 20.3199L19.4908 19.1467C18.0273 18.6085 17.8557 16.6075 19.2061 15.8279L18.5811 14.7453ZM20 26.875C18.4237 26.875 17.2917 26.8741 16.415 26.7792C15.5501 26.6855 15.0083 26.5062 14.5849 26.1986L13.8502 27.2099C14.5221 27.6981 15.3091 27.9167 16.2804 28.0219C17.24 28.1259 18.4515 28.125 20 28.125V26.875ZM11.875 20C11.875 21.5485 11.8741 22.76 11.9781 23.7196C12.0833 24.6909 12.3019 25.4779 12.7901 26.1498L13.8014 25.4151C13.4938 24.9917 13.3145 24.4499 13.2208 23.585C13.1259 22.7083 13.125 21.5763 13.125 20H11.875ZM14.5849 26.1986C14.2843 25.9802 14.0198 25.7157 13.8014 25.4151L12.7901 26.1498C13.0857 26.5566 13.4434 26.9143 13.8502 27.2099L14.5849 26.1986ZM26.875 20C26.875 21.5763 26.8741 22.7083 26.7792 23.585C26.6855 24.4499 26.5062 24.9917 26.1986 25.4151L27.2099 26.1498C27.6981 25.4779 27.9167 24.6909 28.0219 23.7196C28.1259 22.76 28.125 21.5485 28.125 20H26.875ZM20 28.125C21.5485 28.125 22.76 28.1259 23.7196 28.0219C24.6909 27.9167 25.4779 27.6981 26.1498 27.2099L25.4151 26.1986C24.9917 26.5062 24.4499 26.6855 23.585 26.7792C22.7083 26.8741 21.5763 26.875 20 26.875V28.125ZM26.1986 25.4151C25.9802 25.7157 25.7157 25.9802 25.4151 26.1986L26.1498 27.2099C26.5566 26.9143 26.9143 26.5566 27.2099 26.1498L26.1986 25.4151ZM20 13.125C21.5763 13.125 22.7083 13.1259 23.585 13.2208C24.4499 13.3145 24.9917 13.4938 25.4151 13.8014L26.1498 12.7901C25.4779 12.3019 24.6909 12.0833 23.7196 11.9781C22.76 11.8741 21.5485 11.875 20 11.875V13.125ZM28.125 20C28.125 18.4515 28.1259 17.24 28.0219 16.2804C27.9167 15.3091 27.6981 14.5221 27.2099 13.8502L26.1986 14.5849C26.5062 15.0083 26.6855 15.5501 26.7792 16.415C26.8741 17.2917 26.875 18.4237 26.875 20H28.125ZM25.4151 13.8014C25.7157 14.0198 25.9802 14.2843 26.1986 14.5849L27.2099 13.8502C26.9143 13.4434 26.5566 13.0857 26.1498 12.7901L25.4151 13.8014ZM20 11.875C18.4515 11.875 17.24 11.8741 16.2804 11.9781C15.3091 12.0833 14.5221 12.3019 13.8502 12.7901L14.5849 13.8014C15.0083 13.4938 15.5501 13.3145 16.415 13.2208C17.2917 13.1259 18.4237 13.125 20 13.125V11.875ZM13.125 20C13.125 18.4237 13.1259 17.2917 13.2208 16.415C13.3145 15.5501 13.4938 15.0083 13.8014 14.5849L12.7901 13.8502C12.3019 14.5221 12.0833 15.3091 11.9781 16.2804C11.8741 17.24 11.875 18.4515 11.875 20H13.125ZM13.8502 12.7901C13.4434 13.0857 13.0857 13.4434 12.7901 13.8502L13.8014 14.5849C14.0198 14.2843 14.2843 14.0198 14.5849 13.8014L13.8502 12.7901ZM22.801 15.876C22.2007 14.8364 21.0879 14.2787 19.9686 14.3349L20.0314 15.5834C20.7005 15.5497 21.3618 15.8833 21.7184 16.501L22.801 15.876ZM19.9686 14.3349C19.4944 14.3587 19.0188 14.4926 18.5811 14.7453L19.2061 15.8279C19.4682 15.6765 19.7504 15.5975 20.0314 15.5834L19.9686 14.3349ZM20.625 14.9591V14.1667H19.375V14.9591H20.625ZM20.625 20L20.625 14.9591L19.375 14.9591L19.375 20L20.625 20ZM19.0592 20.3199L19.7843 20.5866L20.2158 19.4134L19.4908 19.1467L19.0592 20.3199ZM19.7843 20.5866L20.5093 20.8533L20.9408 19.6801L20.2158 19.4134L19.7843 20.5866ZM20.625 25.8333L20.625 25.0409L19.375 25.0409L19.375 25.8333L20.625 25.8333ZM20.625 25.0409L20.625 20L19.375 20L19.375 25.0409L20.625 25.0409ZM20.794 24.1721C20.5319 24.3235 20.2496 24.4025 19.9687 24.4167L20.0313 25.6651C20.5056 25.6413 20.9813 25.5074 21.419 25.2547L20.794 24.1721ZM19.9687 24.4167C19.2995 24.4502 18.6383 24.1167 18.2817 23.499L17.1991 24.124C17.7993 25.1635 18.9121 25.7213 20.0313 25.6651L19.9687 24.4167Z" fill="#7E42FF"/>
</svg>
