<svg width="40" height="40" viewBox="0 0 40 40" fill="none" xmlns="http://www.w3.org/2000/svg">
<rect width="40" height="40" rx="8" fill="#F1F5F3"/>
<path d="M16.667 17.4998C16.667 17.9601 17.0401 18.3332 17.5003 18.3332C17.9606 18.3332 18.3337 17.9601 18.3337 17.4998C18.3337 17.0396 17.9606 16.6665 17.5003 16.6665C17.0401 16.6665 16.667 17.0396 16.667 17.4998Z" fill="#0EB17F"/>
<path d="M21.667 22.4998C21.667 22.9601 22.0401 23.3332 22.5003 23.3332C22.9606 23.3332 23.3337 22.9601 23.3337 22.4998C23.3337 22.0396 22.9606 21.6665 22.5003 21.6665C22.0401 21.6665 21.667 22.0396 21.667 22.4998Z" fill="#0EB17F"/>
<path d="M17.0581 22.0581C16.814 22.3021 16.814 22.6979 17.0581 22.9419C17.3021 23.186 17.6979 23.186 17.9419 22.9419L17.0581 22.0581ZM22.656 18.2279C22.9001 17.9838 22.9001 17.5881 22.656 17.344C22.4119 17.0999 22.0162 17.0999 21.7721 17.344L22.656 18.2279ZM14.2176 26.7042L14.5849 26.1986L14.2176 26.7042ZM13.2958 25.7824L13.8014 25.4151L13.2958 25.7824ZM26.7042 25.7824L26.1986 25.4151L26.7042 25.7824ZM25.7824 26.7042L25.4151 26.1986L25.7824 26.7042ZM25.7824 13.2958L25.4151 13.8014L25.7824 13.2958ZM26.7042 14.2176L26.1986 14.5849L26.7042 14.2176ZM14.2176 13.2958L14.5849 13.8014L14.2176 13.2958ZM13.2958 14.2176L13.8014 14.5849L13.2958 14.2176ZM17.9419 22.9419L22.656 18.2279L21.7721 17.344L17.0581 22.0581L17.9419 22.9419ZM20 26.875C18.4237 26.875 17.2917 26.8741 16.415 26.7792C15.5501 26.6855 15.0083 26.5062 14.5849 26.1986L13.8502 27.2099C14.5221 27.6981 15.3091 27.9167 16.2804 28.0219C17.24 28.1259 18.4515 28.125 20 28.125V26.875ZM11.875 20C11.875 21.5485 11.8741 22.76 11.9781 23.7196C12.0833 24.6909 12.3019 25.4779 12.7901 26.1498L13.8014 25.4151C13.4938 24.9917 13.3145 24.4499 13.2208 23.585C13.1259 22.7083 13.125 21.5763 13.125 20H11.875ZM14.5849 26.1986C14.2843 25.9802 14.0198 25.7157 13.8014 25.4151L12.7901 26.1498C13.0857 26.5566 13.4434 26.9143 13.8502 27.2099L14.5849 26.1986ZM26.875 20C26.875 21.5763 26.8741 22.7083 26.7792 23.585C26.6855 24.4499 26.5062 24.9917 26.1986 25.4151L27.2099 26.1498C27.6981 25.4779 27.9167 24.6909 28.0219 23.7196C28.1259 22.76 28.125 21.5485 28.125 20H26.875ZM20 28.125C21.5485 28.125 22.76 28.1259 23.7196 28.0219C24.6909 27.9167 25.4779 27.6981 26.1498 27.2099L25.4151 26.1986C24.9917 26.5062 24.4499 26.6855 23.585 26.7792C22.7083 26.8741 21.5763 26.875 20 26.875V28.125ZM26.1986 25.4151C25.9802 25.7157 25.7157 25.9802 25.4151 26.1986L26.1498 27.2099C26.5566 26.9143 26.9143 26.5566 27.2099 26.1498L26.1986 25.4151ZM20 13.125C21.5763 13.125 22.7083 13.1259 23.585 13.2208C24.4499 13.3145 24.9917 13.4938 25.4151 13.8014L26.1498 12.7901C25.4779 12.3019 24.6909 12.0833 23.7196 11.9781C22.76 11.8741 21.5485 11.875 20 11.875V13.125ZM28.125 20C28.125 18.4515 28.1259 17.24 28.0219 16.2804C27.9167 15.3091 27.6981 14.5221 27.2099 13.8502L26.1986 14.5849C26.5062 15.0083 26.6855 15.5501 26.7792 16.415C26.8741 17.2917 26.875 18.4237 26.875 20H28.125ZM25.4151 13.8014C25.7157 14.0198 25.9802 14.2843 26.1986 14.5849L27.2099 13.8502C26.9143 13.4434 26.5566 13.0857 26.1498 12.7901L25.4151 13.8014ZM20 11.875C18.4515 11.875 17.24 11.8741 16.2804 11.9781C15.3091 12.0833 14.5221 12.3019 13.8502 12.7901L14.5849 13.8014C15.0083 13.4938 15.5501 13.3145 16.415 13.2208C17.2917 13.1259 18.4237 13.125 20 13.125V11.875ZM13.125 20C13.125 18.4237 13.1259 17.2917 13.2208 16.415C13.3145 15.5501 13.4938 15.0083 13.8014 14.5849L12.7901 13.8502C12.3019 14.5221 12.0833 15.3091 11.9781 16.2804C11.8741 17.24 11.875 18.4515 11.875 20H13.125ZM13.8502 12.7901C13.4434 13.0857 13.0857 13.4434 12.7901 13.8502L13.8014 14.5849C14.0198 14.2843 14.2843 14.0198 14.5849 13.8014L13.8502 12.7901Z" fill="#0EB17F"/>
</svg>
