<svg width="194" height="39" viewBox="0 0 194 39" fill="none" xmlns="http://www.w3.org/2000/svg">
<path d="M42.0698 23.7324L20.8243 19.8208C20.5916 19.7792 20.4487 19.5392 20.5224 19.3131L22.1076 14.3492C22.1675 14.1623 22.3564 14.0492 22.55 14.0838L43.7932 18.0185C44.0259 18.06 44.1688 18.3 44.095 18.5262L42.5122 23.467C42.4546 23.6539 42.2633 23.767 42.0698 23.7324Z" fill="#2C2CFF"/>
<path d="M68.0654 32.0791H51.7505C51.557 32.0791 51.3911 31.936 51.3634 31.7445L51.3151 31.4098C51.3012 31.3222 51.3197 31.2322 51.3634 31.1537L60.5404 15.4244C60.6925 15.1636 60.5036 14.8336 60.2017 14.8336H53.1306C52.8519 14.8336 52.6606 14.5498 52.7689 14.2913L54.5269 10.0636C54.5868 9.91821 54.7296 9.82129 54.8886 9.82129H69.2843C69.4732 9.82129 69.6368 9.95744 69.669 10.1444L69.7358 10.5136C69.752 10.6059 69.7358 10.7005 69.6875 10.7813L60.4851 26.476C60.3308 26.7368 60.5197 27.0668 60.8238 27.0668H69.722C69.9985 27.0668 70.1874 27.346 70.0861 27.6021L68.4271 31.8298C68.3719 31.9821 68.2267 32.0791 68.0654 32.0791Z" fill="black"/>
<path d="M77.6593 9.82373H82.6544C82.871 9.82373 83.0461 9.99911 83.0461 10.216V31.689C83.0461 31.906 82.871 32.0814 82.6544 32.0814H77.6593C77.4427 32.0814 77.2676 31.906 77.2676 31.689V10.216C77.2676 9.99911 77.4427 9.82373 77.6593 9.82373Z" fill="black"/>
<path d="M91.5118 9.82373H103.924C104.14 9.82373 104.315 9.99911 104.315 10.216V14.5337C104.315 14.7507 104.14 14.926 103.924 14.926H97.2903C97.0738 14.926 96.8986 15.1014 96.8986 15.3183V18.113C96.8986 18.3299 97.0738 18.5053 97.2903 18.5053H103.12C103.336 18.5053 103.511 18.6807 103.511 18.8976V22.7376C103.511 22.9545 103.336 23.1298 103.12 23.1298H97.2903C97.0738 23.1298 96.8986 23.3052 96.8986 23.5221V26.5867C96.8986 26.8037 97.0738 26.979 97.2903 26.979H104.163C104.38 26.979 104.555 27.1544 104.555 27.3714V31.689C104.555 31.906 104.38 32.0814 104.163 32.0814H91.5118C91.2952 32.0814 91.1201 31.906 91.1201 31.689V10.216C91.1201 9.99911 91.2952 9.82373 91.5118 9.82373Z" fill="black"/>
<path d="M117.775 32.0791H112.84C112.623 32.0791 112.448 31.9037 112.448 31.6868V10.2136C112.448 9.99667 112.623 9.82129 112.84 9.82129H118.178C118.303 9.82129 118.42 9.88129 118.494 9.98052L124.577 18.2698C124.736 18.4867 125.061 18.4821 125.215 18.2605L130.952 9.98975C131.026 9.8836 131.146 9.82129 131.275 9.82129H136.546C136.763 9.82129 136.938 9.99667 136.938 10.2136V31.6868C136.938 31.9037 136.763 32.0791 136.546 32.0791H131.611C131.394 32.0791 131.219 31.9037 131.219 31.6868V20.6813L131.224 20.4113C131.231 20.0282 130.74 19.8621 130.514 20.1736L125.169 27.5606C125.095 27.6622 124.978 27.7222 124.851 27.7222H124.8C124.676 27.7222 124.561 27.6645 124.487 27.5652L118.87 20.0444C118.641 19.7397 118.158 19.9059 118.165 20.2867L118.171 20.6513V31.6868C118.167 31.9037 117.989 32.0791 117.775 32.0791Z" fill="black"/>
<path d="M158.815 29.0077H150.967C150.801 29.0077 150.654 29.1115 150.599 29.2685L149.684 31.8231C149.629 31.98 149.481 32.0838 149.315 32.0838H144.143C143.869 32.0838 143.677 31.8069 143.776 31.5508L152.025 10.0777C152.083 9.9254 152.228 9.82617 152.391 9.82617H157.543C157.704 9.82617 157.85 9.9254 157.909 10.0777L166.158 31.5508C166.257 31.8069 166.068 32.0838 165.792 32.0838H160.444C160.278 32.0838 160.128 31.9777 160.075 31.8208L159.186 29.2731C159.131 29.1115 158.983 29.0077 158.815 29.0077ZM157.331 23.9792L155.29 18.1777C155.168 17.8292 154.675 17.8292 154.552 18.1754L152.488 23.9769C152.398 24.2331 152.587 24.5008 152.857 24.5008H156.96C157.232 24.5008 157.421 24.2354 157.331 23.9792Z" fill="black"/>
<path d="M22.0774 14.3701L20.506 19.304C20.4554 19.4609 20.5107 19.634 20.6397 19.7332L22.1074 20.8616L23.0151 21.5563L26.8099 24.4524L28.8398 26.0055L32.1415 28.5255C32.4341 28.7493 32.2843 29.2178 31.9157 29.2293L27.773 29.3563L25.2271 29.4278L20.4669 29.5616V29.5709L18.9001 29.6055L17.4901 29.6447C17.3242 29.6493 17.179 29.7578 17.1283 29.917L15.504 35.0216C15.421 35.2847 15.6261 35.5478 15.9003 35.5316L38.8278 34.177C38.9891 34.1678 39.1296 34.0593 39.178 33.9047L40.7402 28.9963C40.7885 28.8416 40.7402 28.6732 40.6111 28.5716L22.6949 14.1832C22.4806 14.0101 22.1603 14.107 22.0774 14.3701Z" fill="#1700FE"/>
<path d="M42.523 23.467L44.0943 18.5263C44.145 18.3693 44.0897 18.1986 43.9607 18.0993L42.4907 16.9709L41.5829 16.2763L37.7882 13.3801L35.7583 11.827L32.4497 9.30241C32.1594 9.08087 32.3069 8.61471 32.6732 8.60317L36.8251 8.47625L39.371 8.40471L44.1312 8.27087V8.26164L45.6979 8.22702L47.1103 8.18779C47.2762 8.18317 47.419 8.07471 47.4697 7.91779L49.0964 2.80625C49.1793 2.54548 48.9766 2.28241 48.7024 2.29856L25.768 3.65317C25.6067 3.66241 25.4685 3.77087 25.4201 3.92317L23.858 8.83625C23.8096 8.98856 23.8603 9.15702 23.9847 9.25856L41.9055 23.6562C42.1244 23.8224 42.44 23.7255 42.523 23.467Z" fill="#1700FE"/>
<path d="M44.0969 18.5538L42.5209 23.4647C42.438 23.7278 42.1177 23.8247 41.9034 23.6516L23.9918 9.28614C23.8651 9.1846 23.8144 9.01614 23.8628 8.86152L25.4249 3.95075C25.5079 3.68998 25.8235 3.59306 26.0401 3.76152L43.9655 18.1292C44.0923 18.2261 44.1452 18.3969 44.0969 18.5538Z" fill="#0803E2"/>
<path d="M40.3508 28.509L17.4878 29.6421C17.3219 29.649 17.179 29.7575 17.1306 29.9144L15.504 35.0236C15.421 35.2867 15.6261 35.5498 15.9003 35.5336L38.8278 34.179C38.9891 34.1698 39.1296 34.0613 39.178 33.9067L40.7402 29.019C40.8208 28.7629 40.6227 28.4998 40.3508 28.509Z" fill="#0803E2"/>
<path d="M164.928 12.0486H164.895V12.7501H164.326V10.5532H164.981C165.404 10.5532 165.865 10.694 165.865 11.3194C165.865 11.5986 165.706 11.7971 165.499 11.9148L166.077 12.7501H165.395L164.928 12.0486ZM164.895 11.0586V11.6032H165.001C165.192 11.6032 165.303 11.5109 165.303 11.3263C165.303 11.1417 165.167 11.0586 164.997 11.0586H164.895Z" fill="#1700FE"/>
<path d="M165.024 13.5255C166.058 13.5255 166.895 12.6866 166.895 11.6517C166.895 10.6168 166.058 9.77783 165.024 9.77783C163.991 9.77783 163.153 10.6168 163.153 11.6517C163.153 12.6866 163.991 13.5255 165.024 13.5255Z" stroke="#1700FE" stroke-miterlimit="10"/>
</svg>
